<svg fill="none" height="24" viewBox="0 0 24 24" width="24" xmlns="http://www.w3.org/2000/svg"><path clip-rule="evenodd" d="m23.4493 5.94799c.1668-.54645 0-.94799-.794-.94799h-2.6256c-.6676 0-.9754.34687-1.1423.72936 0 0-1.3353 3.19671-3.2268 5.27314-.6119.6011-.8901.7924-1.2239.7924-.1669 0-.4173-.1913-.4173-.7377v-5.10921c0-.65574-.1849-.94799-.7413-.94799h-4.12597c-.41719 0-.6681.30434-.6681.59278 0 .62163.94571.76499 1.04319 2.51363v3.79779c0 .8326-.15309.9836-.4869.9836-.89009 0-3.05525-3.21098-4.33939-6.88519-.25166-.71414-.50407-1.00261-1.1751-1.00261h-2.625612c-.750174 0-.900218.34687-.900218.72936 0 .68308.890141 4.07103 4.14464 8.55184 2.16965 3.06 5.22654 4.7188 8.00816 4.7188 1.669 0 1.8755-.3684 1.8755-1.003v-2.3128c0-.7368.1581-.8839.6866-.8839.3894 0 1.057.1913 2.6147 1.6667 1.7803 1.7486 2.0738 2.533 3.0751 2.533h2.6257c.7501 0 1.1252-.3684.9088-1.0955-.2368-.7246-1.0867-1.7759-2.2145-3.0222-.612-.7104-1.53-1.4754-1.8082-1.858-.3894-.4917-.2781-.7103 0-1.1474 0 0 3.199-4.42623 3.5328-5.92891z" fill="#000" fill-rule="evenodd"/></svg>